<?xml version="1.0" encoding="UTF-8"?>
<!DOCTYPE svg PUBLIC "-//W3C//DTD SVG 1.1//EN" "http://www.w3.org/Graphics/SVG/1.1/DTD/svg11.dtd">
<!-- Creator: CorelDRAW X6 -->
<svg xmlns="http://www.w3.org/2000/svg" xml:space="preserve" width="590mm" height="480mm" version="1.1" style="shape-rendering:geometricPrecision; text-rendering:geometricPrecision; image-rendering:optimizeQuality; fill-rule:evenodd; clip-rule:evenodd"
viewBox="0 0 59000 48000"
 xmlns:xlink="http://www.w3.org/1999/xlink">
 <defs>
  <style type="text/css">
   <![CDATA[
    .str3 {stroke:#D2D3D5;stroke-width:7.62}
    .str4 {stroke:#E6E7E8;stroke-width:7.62}
    .str2 {stroke:#D2D3D5;stroke-width:20}
    .str0 {stroke:#FEFEFE;stroke-width:20;stroke-opacity:0.600000}
    .str1 {stroke:#FEFEFE;stroke-width:20}
    .str5 {stroke:#FEFEFE;stroke-width:150}
    .fil6 {fill:none}
    .fil4 {fill:#FEFEFE}
    .fil5 {fill:#E6DFDF}
    .fil2 {fill:#FEFDFB}
    .fil3 {fill:#FFFEFC}
    .fil1 {fill:white}
    .fil0 {fill:white;fill-opacity:0.600000}
   ]]>
  </style>
 </defs>
 <g id="Capa_x0020_1">
  <metadata id="CorelCorpID_0Corel-Layer"/>
  <g id="_196719160">
   <g>
    <path class="fil0 str0" d="M28928 5833c1086,-77 2155,238 3148,865l-457 1889c-815,-528 -1694,-793 -2588,-730 -704,50 -1358,300 -1945,714l-548 -1872c722,-503 1526,-806 2390,-867zm-2413 3213c-1223,1180 -2074,3141 -2348,5475l-1217 -654c360,-2888 1452,-5300 3014,-6708l552 1887zm-2415 6211c-50,786 -37,1606 48,2448 154,1542 529,2981 1063,4237l-948 1152c-678,-1553 -1154,-3339 -1348,-5255 -113,-1118 -123,-2205 -40,-3240l1225 659zm1510 7532c1059,2042 2565,3466 4193,3842l60 2087c-2026,-470 -3896,-2244 -5199,-4779l946 -1150zm4828 3935c160,10 321,9 483,-3 1494,-107 2765,-1114 3646,-2683l1250 1393c-1088,1986 -2681,3266 -4561,3399 -253,18 -506,14 -757,-10l-61 -2098zm4512 -3459c755,-1734 1095,-3977 853,-6391 -34,-337 -78,-669 -132,-995l1390 -518c87,478 156,967 207,1464 300,2963 -126,5713 -1068,7832l-1249 -1393zm557 -8228c-584,-2597 -1799,-4756 -3295,-6010l461 -1907c1908,1495 3468,4166 4215,7402l-1381 515z"/>
    <path class="fil1 str1" d="M28941 5819c1086,-77 2155,238 3148,865l-457 1889c-815,-528 -1694,-793 -2588,-730 -704,50 -1358,300 -1945,714l-548 -1872c722,-503 1526,-806 2390,-867zm6022 17432c755,-1734 1095,-3977 853,-6391 -34,-337 -78,-669 -132,-995l1390 -518c87,478 156,967 207,1464 300,2963 -126,5713 -1068,7832l-1249 -1393zm557 -8228c-584,-2597 -1799,-4756 -3295,-6010l461 -1907c1908,1495 3468,4166 4215,7402l-1381 515z"/>
    <path class="fil2 str1" d="M29883 10835c1264,15 2448,1656 2449,2126l9 3585 -1106 -181 50 -2661c1,-133 12,-173 -6,-265 -103,-539 -729,-975 -1398,-975 -507,0 -894,252 -1005,608l0 1c-14,205 -8,262 -8,412l-47 2485 -986 -161c-3,-1113 -76,-2270 10,-3326 43,-529 880,-1661 2038,-1647z"/>
    <path class="fil3 str2" d="M27739 15718l4611 755c274,45 498,311 499,593l22 5871c1,281 -222,474 -496,430l-4611 -755c-274,-45 -498,-311 -499,-593l-22 -5871c-1,-281 222,-474 496,-430zm2258 2720c225,12 398,205 387,429 -7,147 -91,271 -211,336l103 1162 -748 -86 212 -1104c-109,-79 -178,-209 -171,-353 11,-225 202,-397 427,-385z"/>
   </g>
   <g>
    <path class="fil0 str0" d="M16604 14325c312,-22 620,68 905,249l-131 543c-234,-152 -487,-228 -744,-210 -202,14 -390,86 -559,205l-157 -538c208,-145 439,-232 687,-249zm-694 924c-352,339 -596,903 -675,1574l-350 -188c103,-830 418,-1524 867,-1929l159 543zm-694 1786c-14,226 -11,462 14,704 44,443 152,857 306,1218l-273 331c-195,-446 -332,-960 -388,-1511 -33,-321 -35,-634 -12,-932l352 189zm434 2166c305,587 737,997 1206,1105l17 600c-582,-135 -1120,-645 -1495,-1374l272 -331zm1388 1131c46,3 92,3 139,-1 430,-31 795,-320 1048,-771l359 401c-313,571 -771,939 -1312,977 -73,5 -145,4 -218,-3l-17 -603zm1298 -995c217,-499 315,-1143 245,-1838 -10,-97 -22,-192 -38,-286l400 -149c25,137 45,278 59,421 86,852 -36,1643 -307,2252l-359 -400zm160 -2366c-168,-747 -517,-1368 -947,-1728l133 -548c549,430 997,1198 1212,2129l-397 148z"/>
    <path class="fil1 str1" d="M16608 14321c312,-22 620,68 905,249l-131 543c-234,-152 -487,-228 -744,-210 -202,14 -390,86 -559,205l-157 -538c208,-145 439,-232 687,-249zm1732 5013c217,-499 315,-1143 245,-1838 -10,-97 -22,-192 -38,-286l400 -149c25,138 45,278 59,421 86,852 -36,1643 -307,2252l-359 -400zm160 -2366c-168,-747 -517,-1368 -947,-1728l133 -548c549,430 997,1198 1212,2129l-397 148z"/>
    <path class="fil2 str1" d="M16879 15763c363,4 704,476 704,611l2 1031 -318 -52 15 -765c0,-38 3,-50 -2,-76 -30,-155 -210,-280 -402,-280 -146,0 -257,72 -289,175l0 0c-4,59 -2,75 -2,118l-14 714 -284 -46c-1,-320 -22,-653 3,-957 12,-152 253,-478 586,-474z"/>
    <path class="fil3 str2" d="M16262 17167l1326 217c79,13 143,90 144,170l6 1688c0,81 -64,136 -142,124l-1326 -217c-79,-13 -143,-90 -144,-170l-6 -1688c0,-81 64,-136 142,-124zm649 782c65,4 115,59 111,123 -2,42 -26,78 -61,97l30 334 -215 -25 61 -317c-31,-23 -51,-60 -49,-102 3,-65 58,-114 123,-111z"/>
   </g>
   <path class="fil0 str0" d="M4549 23121c240,-17 476,53 696,191l-101 418c-180,-117 -374,-175 -572,-161 -156,11 -300,66 -430,158l-121 -414c160,-111 337,-178 528,-192zm-533 710c-270,261 -458,694 -519,1210l-269 -145c80,-638 321,-1171 666,-1483l122 417zm-534 1373c-11,174 -8,355 11,541 34,341 117,659 235,936l-209 255c-150,-343 -255,-738 -298,-1161 -25,-247 -27,-487 -9,-716l271 146zm334 1665c234,451 567,766 927,849l13 461c-448,-104 -861,-496 -1149,-1056l209 -254zm1067 870c35,2 71,2 107,-1 330,-24 611,-246 806,-593l276 308c-240,439 -593,722 -1008,751 -56,4 -112,3 -167,-2l-13 -464zm997 -765c167,-383 242,-879 189,-1413 -7,-74 -17,-148 -29,-220l307 -114c19,106 35,214 46,324 66,655 -28,1263 -236,1731l-276 -308zm123 -1819c-129,-574 -398,-1051 -728,-1328l102 -422c422,330 766,921 932,1636l-305 114z"/>
   <path class="fil1 str1" d="M4551 23118c240,-17 476,53 696,191l-101 418c-180,-117 -374,-175 -572,-161 -156,11 -300,66 -430,158l-121 -414c160,-111 337,-178 528,-192zm1331 3853c167,-383 242,-879 189,-1413 -7,-74 -17,-148 -29,-220l307 -114c19,106 35,214 46,324 66,655 -28,1263 -236,1731l-276 -308zm123 -1819c-129,-574 -398,-1051 -728,-1328l102 -422c422,330 766,921 932,1636l-305 114z"/>
   <path class="fil2 str1" d="M4760 24226c279,3 541,366 541,470l2 792 -245 -40 11 -588c0,-29 3,-38 -1,-59 -23,-119 -161,-216 -309,-216 -112,0 -198,56 -222,134l0 0c-3,45 -2,58 -2,91l-10 549 -218 -36c-1,-246 -17,-502 2,-735 10,-117 195,-367 450,-364z"/>
   <path class="fil3 str2" d="M4286 25306l1019 167c60,10 110,69 110,131l5 1298c0,62 -49,105 -110,95l-1019 -167c-60,-10 -110,-69 -110,-131l-5 -1298c0,-62 49,-105 110,-95zm499 601c50,3 88,45 86,95 -2,32 -20,60 -47,74l23 257 -165 -19 47 -244c-24,-17 -39,-46 -38,-78 2,-50 45,-88 94,-85z"/>
   <g>
    <path class="fil4 str1" d="M5011 6431l1977 145 -48 2419 -1977 -145 48 -2419zm626 3094l6 0 3 -50 584 34 -21 369 -6 0 -3 50 -584 -34 21 -369zm-684 -661l1978 149 217 1416 -2496 -234 301 -1331zm136 -2344l1796 134 -48 2300 -1796 -134 48 -2300z"/>
    <g>
     <path class="fil0 str0" d="M6026 3020c457,52 886,288 1267,664l-291 854c-312,-315 -664,-512 -1040,-555 -296,-34 -582,31 -849,179l-129 -928c328,-179 679,-256 1043,-215zm-1178 1320c-573,457 -1032,1313 -1271,2392l-473 -408c304,-1333 888,-2382 1615,-2920l130 935zm-1338 2734c-63,367 -101,755 -111,1159 -18,740 62,1450 217,2086l-457 466c-200,-788 -303,-1669 -282,-2589 12,-537 67,-1051 156,-1532l476 411zm228 3677c333,1050 885,1844 1544,2154l-86 989c-820,-387 -1505,-1376 -1913,-2678l456 -465zm1803 2250c66,18 134,30 202,38 629,71 1212,-300 1664,-969l447 759c-560,849 -1292,1323 -2084,1232 -107,-12 -212,-35 -315,-66l87 -995zm2066 -1265c407,-757 669,-1787 697,-2946 4,-162 3,-322 -2,-480l607 -131c11,233 14,469 8,708 -33,1422 -357,2685 -863,3609l-447 -759zm671 -3837c-105,-1273 -496,-2391 -1053,-3104l294 -862c716,861 1224,2248 1363,3836l-604 130z"/>
     <path class="fil1 str1" d="M6032 3015c457,52 886,288 1267,664l-291 854c-312,-315 -664,-512 -1040,-555 -296,-34 -582,31 -849,179l-129 -928c328,-179 679,-256 1043,-215zm1581 8715c407,-757 669,-1787 697,-2946 4,-162 3,-322 -2,-480l607 -131c11,233 14,469 8,708 -33,1422 -357,2685 -863,3609l-447 -759zm671 -3837c-105,-1273 -496,-2391 -1053,-3104l294 -862c716,861 1224,2248 1363,3836l-604 130z"/>
    </g>
   </g>
   <g>
    <path class="fil4 str3" d="M21175 2455l709 15c159,3 287,136 284,296l-63 3020c-3,159 -136,287 -296,284l-709 -15c-159,-3 -287,-136 -284,-296l63 -3020c3,-159 136,-287 296,-284zm314 3231l0 0c53,1 96,46 95,99l-1 41c-1,53 -46,96 -99,95l0 0c-53,-1 -96,-46 -95,-99l1 -41c1,-53 46,-96 99,-95zm-460 -2805l997 21 -55 2659 -997 -21 55 -2659z"/>
    <g>
     <path class="fil0 str0" d="M21174 1015c299,-39 592,35 864,201l-129 551c-223,-139 -464,-202 -710,-170 -194,25 -374,107 -536,236l-147 -530c200,-156 421,-256 659,-286zm-670 962c-339,358 -577,936 -657,1612l-334 -170c105,-837 410,-1548 842,-1977l148 535zm-676 1825c-15,227 -13,463 8,704 39,441 140,850 284,1203l-263 346c-184,-436 -311,-943 -360,-1492 -29,-320 -29,-633 -5,-932l336 171zm400 2145c287,571 698,958 1146,1042l12 600c-556,-104 -1067,-586 -1421,-1296l262 -345zm1320 1058c44,0 88,-2 133,-8 411,-54 763,-363 1008,-828l341 382c-303,589 -744,981 -1261,1049 -70,9 -139,12 -208,9l-13 -603zm1248 -1065c211,-511 309,-1162 247,-1853 -9,-96 -20,-191 -34,-284l383 -170c23,136 41,276 54,418 77,848 -46,1646 -309,2271l-341 -382zm169 -2377c-155,-739 -485,-1341 -894,-1679l131 -556c522,401 946,1146 1144,2066l-381 169z"/>
     <path class="fil1 str1" d="M21177 1011c299,-39 592,35 864,201l-129 551c-223,-139 -464,-202 -710,-170 -194,25 -374,107 -536,236l-147 -530c200,-156 421,-256 659,-286zm1622 4925c211,-511 309,-1162 247,-1853 -9,-96 -20,-191 -34,-284l383 -170c23,136 41,276 54,418 77,848 -46,1646 -309,2271l-341 -382zm169 -2377c-155,-739 -485,-1341 -894,-1679l131 -556c522,401 946,1146 1144,2066l-381 169z"/>
    </g>
   </g>
   <g>
    <g>
     <path class="fil4 str4" d="M45675 7965l2989 145c46,2 82,48 79,101l-38 750c-3,53 -43,95 -89,93l-2989 -145c-46,-2 -82,-48 -79,-101l38 -750c3,-53 43,-95 89,-93zm2330 371l456 17c28,1 51,29 50,61l-2 54c-1,33 -25,59 -53,58l-456 -17c-28,-1 -51,-29 -50,-61l2 -54c1,-33 25,-59 53,-58zm-585 -53l274 12c28,1 51,29 49,62l-2 70c-1,33 -25,58 -54,57l-274 -12c-28,-1 -51,-29 -49,-62l2 -70c1,-33 25,-58 54,-57zm-433 -17c31,0 56,34 56,74 0,41 -26,73 -58,73 -31,0 -56,-34 -56,-74 0,-41 26,-73 58,-73z"/>
     <path class="fil4 str4" d="M45535 10509l1428 85 23 -609 -1420 -69c-46,-2 -82,-48 -79,-101l38 -750c3,-53 43,-95 89,-93l2989 145c46,2 82,48 79,101l-38 750c-3,53 -43,95 -89,93l-1375 -67 -24 611 1499 89 -22 304 -3121 -185 22 -304zm2409 -1166l456 17c28,1 51,29 50,61l-2 54c-1,33 -25,59 -53,58l-456 -17c-28,-1 -51,-29 -50,-61l2 -54c1,-33 25,-59 53,-58zm-585 -53l274 12c28,1 51,29 49,62l-2 70c-1,33 -25,58 -54,57l-274 -12c-28,-1 -51,-29 -49,-62l2 -70c1,-33 25,-58 54,-57zm-433 -17c31,0 56,34 56,74 -1,41 -26,73 -58,73 -31,0 -56,-34 -56,-74 0,-41 26,-73 58,-73z"/>
     <path class="fil4 str4" d="M45733 6957l2989 145c46,2 82,48 79,101l-38 750c-3,53 -43,95 -89,93l-2989 -145c-46,-2 -82,-48 -79,-101l38 -750c3,-53 43,-95 89,-93zm2330 371l456 17c28,1 51,29 50,61l-2 54c-1,33 -25,59 -53,58l-456 -17c-28,-1 -51,-29 -50,-61l2 -54c1,-33 25,-59 53,-58zm-585 -53l274 12c28,1 51,29 49,62l-2 70c-1,33 -25,58 -54,57l-274 -12c-28,-1 -51,-29 -49,-62l2 -70c1,-33 25,-58 54,-57zm-433 -17c31,0 56,34 56,74 0,41 -26,73 -58,73 -31,0 -56,-34 -56,-74 0,-41 26,-73 58,-73z"/>
     <path class="fil4 str4" d="M45787 5962l2989 145c46,2 82,48 79,101l-38 750c-3,53 -43,95 -89,93l-2989 -145c-46,-2 -82,-48 -79,-101l38 -750c3,-53 43,-95 89,-93zm2330 371l456 17c28,1 51,29 50,61l-2 54c-1,33 -25,59 -53,58l-456 -17c-28,-1 -51,-29 -50,-61l2 -54c1,-33 25,-59 53,-58zm-585 -53l274 12c28,1 51,29 49,62l-2 70c-1,33 -25,58 -54,57l-274 -12c-28,-1 -51,-29 -49,-62l2 -70c1,-33 25,-58 54,-57zm-433 -17c31,0 56,34 56,74 0,41 -26,73 -58,73 -31,0 -56,-34 -56,-74 0,-41 26,-73 58,-73z"/>
    </g>
    <g>
     <path class="fil0 str0" d="M46495 2689c585,-170 1166,-142 1711,50l-219 997c-448,-164 -926,-190 -1407,-50 -379,110 -728,314 -1039,592l-323 -867c382,-338 811,-587 1277,-722zm-1254 1894c-643,736 -1073,1817 -1186,3014l-667 -179c151,-1483 705,-2818 1527,-3710l326 874zm-1211 3390c-15,398 4,805 62,1215 106,750 330,1422 636,1984l-494 689c-389,-692 -672,-1525 -805,-2457 -78,-544 -99,-1085 -70,-1611l671 180zm926 3573c602,890 1435,1417 2320,1408l63 1033c-1100,11 -2135,-647 -2876,-1753l493 -688zm2663 1377c87,-15 174,-35 261,-60 804,-234 1475,-890 1928,-1779l695 543c-558,1122 -1399,1954 -2411,2248 -137,40 -273,68 -408,87l-64 -1039zm2384 -2272c382,-956 532,-2115 366,-3290 -23,-164 -52,-324 -86,-480l742 -427c54,228 99,463 133,705 206,1441 16,2864 -461,4035l-695 -543zm179 -4170c-353,-1224 -1041,-2153 -1867,-2597l221 -1007c1052,514 1933,1657 2384,3180l-738 424z"/>
     <path class="fil1 str1" d="M46502 2680c585,-170 1166,-142 1711,50l-219 997c-448,-164 -926,-190 -1407,-50 -379,110 -728,314 -1039,592l-323 -867c382,-338 811,-587 1277,-722zm3508 7962c382,-956 532,-2115 366,-3290 -23,-164 -52,-324 -86,-480l742 -427c54,228 99,463 133,705 206,1441 17,2864 -461,4035l-695 -543zm179 -4170c-353,-1224 -1041,-2153 -1867,-2597l221 -1007c1052,514 1933,1657 2384,3180l-738 424z"/>
    </g>
   </g>
   <g>
    <g>
     <path class="fil0 str0" d="M16466 25711c432,-33 858,102 1256,369l-173 806c-327,-225 -677,-339 -1032,-311 -280,21 -539,128 -770,305l-226 -799c285,-215 603,-344 947,-370zm-945 1371c-481,503 -811,1340 -910,2336l-487 -279c130,-1232 554,-2261 1169,-2862l228 805zm-933 2650c-16,335 -7,685 30,1044 68,658 224,1272 441,1808l-372 491c-277,-662 -474,-1424 -559,-2242 -50,-477 -59,-941 -30,-1383l490 281zm634 3214c430,871 1035,1479 1684,1639l33 890c-808,-201 -1559,-957 -2089,-2039l371 -491zm1937 1679c64,4 128,4 192,-1 594,-45 1095,-475 1438,-1145l503 594c-424,847 -1052,1394 -1799,1450 -101,8 -201,6 -301,-4l-33 -895zm1779 -1476c293,-740 418,-1697 311,-2727 -15,-144 -34,-285 -57,-424l550 -221c37,204 67,412 89,625 132,1264 -25,2437 -390,3342l-503 -594zm185 -3511c-244,-1108 -736,-2029 -1337,-2564l175 -814c766,638 1398,1778 1709,3158l-547 220z"/>
     <path class="fil1 str1" d="M16471 25705c432,-33 858,102 1256,369l-173 806c-327,-225 -677,-339 -1032,-311 -280,21 -539,128 -770,305l-226 -799c285,-215 603,-344 947,-370zm2472 7438c293,-740 418,-1697 311,-2727 -15,-144 -34,-285 -57,-424l550 -221c37,204 67,412 89,625 132,1264 -25,2437 -390,3342l-503 -594zm185 -3511c-244,-1108 -736,-2029 -1337,-2564l175 -814c766,638 1398,1778 1709,3158l-547 220z"/>
    </g>
    <path class="fil4 str4" d="M15578 31529c-244,-91 -758,-1997 258,-1997 0,-326 377,-907 814,-471 91,91 160,-773 944,-295 414,253 451,1076 451,1302 0,400 -13,181 310,503 529,529 535,1425 -18,1974 -149,148 -2603,-958 -2759,-1017z"/>
   </g>
   <g>
    <g>
     <path class="fil0 str0" d="M7470 34314c276,-1 540,116 780,325l-147 561c-197,-176 -415,-274 -641,-273 -179,1 -348,63 -503,176l-107 -576c191,-137 399,-213 618,-213zm-663 921c-329,331 -577,907 -685,1606l-297 -222c139,-865 456,-1571 874,-1965l108 581zm-714 1827c-26,236 -36,484 -29,740 13,469 84,911 197,1302l-259 329c-145,-483 -235,-1032 -252,-1615 -10,-340 6,-669 44,-980l298 224zm255 2306c233,638 590,1099 994,1246l-20 632c-504,-183 -946,-757 -1233,-1550l258 -328zm1153 1287c40,6 81,9 122,9 379,-2 717,-280 966,-736l292 446c-308,578 -732,932 -1209,934 -64,0 -128,-6 -191,-18l20 -635zm1198 -953c220,-508 343,-1179 323,-1913 -3,-102 -9,-204 -17,-303l360 -128c14,146 23,295 28,447 26,901 -128,1723 -401,2344l-292 -446zm279 -2474c-104,-796 -374,-1473 -731,-1883l149 -567c457,490 806,1329 940,2322l-358 127z"/>
     <path class="fil1 str1" d="M7473 34310c276,-1 540,116 780,325l-147 561c-197,-176 -415,-274 -641,-273 -179,1 -348,63 -503,176l-107 -576c191,-137 399,-213 618,-213zm1228 5388c220,-508 343,-1179 323,-1913 -3,-102 -9,-204 -17,-303l360 -128c14,146 23,295 28,447 26,901 -128,1723 -401,2344l-292 -446zm279 -2474c-104,-796 -374,-1473 -731,-1883l149 -567c457,490 806,1329 940,2322l-358 127z"/>
    </g>
    <path class="fil5 str2" d="M7162 37372c-109,-152 -161,-386 -73,-617 87,-231 355,-475 623,-381 267,95 448,347 415,691 -33,344 -275,290 80,511 111,69 299,451 307,1038 11,845 -1826,510 -1823,-17 3,-509 55,-820 279,-1047 25,-25 195,-175 193,-177z"/>
   </g>
   <line class="fil6 str5" x1="19664" y1="17129" x2="22273" y2= "16430" />
   <line class="fil6 str5" x1="24655" y1="25516" x2="20319" y2= "28379" />
   <polyline class="fil6 str5" points="17056,21506 17046,24861 17025,25250 "/>
   <line class="fil6 str5" x1="13896" y1="16597" x2="8905" y2= "12588" />
   <line class="fil6 str5" x1="13241" y1="30425" x2="7187" y2= "27152" />
   <line class="fil6 str5" x1="13896" y1="33452" x2="9969" y2= "36316" />
   <line class="fil6 str5" x1="24492" y1="8129" x2="23029" y2= "6551" />
   <line class="fil6 str5" x1="37337" y1="13897" x2="43678" y2= "11933" />
   <line class="fil6 str5" x1="18502" y1="36271" x2="21721" y2= "47116" />
   <line class="fil6 str5" x1="38458" y1="25296" x2="56453" y2= "47116" />
   <line class="fil6 str5" x1="29975" y1="30200" x2="34012" y2= "47116" />
  </g>
 </g>
</svg>
